<svg
  id="multiplayer-team-card-skin"
  xmlns="http://www.w3.org/2000/svg"
  viewBox="0 0 360 180"
  width="360"
  height="180"
  fill="none"
  role="img"
  aria-labelledby="title desc"
>
  <title id="title">Multiplayer team card skin</title>
  <desc id="desc">
    Reusable team slot card for local multiplayer buzzer mode, with maroon body,
    beige content area, brown structure, and restrained yellow accents.
  </desc>

  <defs>
    <style>
      .shadow {
        fill: #4b2f21;
        opacity: 0.18;
      }

      .frame {
        fill: #5a3726;
      }

      .body {
        fill: #6d1f26;
        stroke: #4b2f21;
        stroke-width: 3;
        vector-effect: non-scaling-stroke;
      }

      .panel {
        fill: #ead8b7;
        stroke: #5a3726;
        stroke-width: 2.5;
        vector-effect: non-scaling-stroke;
      }

      .inner-line {
        fill: none;
        stroke: #c79a2d;
        stroke-width: 1.5;
        opacity: 0.95;
        vector-effect: non-scaling-stroke;
      }

      .accent {
        fill: #d8b13f;
      }

      .accent-soft {
        fill: #c79a2d;
        opacity: 0.9;
      }

      .divider {
        stroke: #5a3726;
        stroke-width: 2;
        opacity: 0.7;
        vector-effect: non-scaling-stroke;
      }

      .micro {
        fill: #4b2f21;
        opacity: 0.22;
      }
    </style>
  </defs>

  <path
    class="shadow"
    d="M26 146H334C341.732 146 348 152.268 348 160V163C348 170.732 341.732 177 334 177H26C18.268 177 12 170.732 12 163V160C12 152.268 18.268 146 26 146Z"
  />

  <rect x="10" y="10" width="340" height="160" rx="18" class="frame"/>
  <rect x="16" y="16" width="328" height="148" rx="16" class="body"/>
  <rect x="30" y="34" width="78" height="78" rx="14" class="panel"/>
  <rect x="38" y="42" width="62" height="62" rx="11" class="inner-line"/>
  <rect x="122" y="34" width="192" height="48" rx="12" class="panel"/>
  <rect x="130" y="42" width="176" height="32" rx="9" class="inner-line"/>
  <rect x="122" y="92" width="192" height="34" rx="10" class="panel"/>
  <path class="divider" d="M140 109H296" stroke-linecap="round"/>
  <rect x="154" y="22" width="52" height="6" rx="3" class="accent"/>
  <rect x="214" y="22" width="18" height="6" rx="3" class="accent-soft"/>
  <rect x="30" y="120" width="78" height="6" rx="3" class="accent-soft"/>
  <rect x="28" y="24" width="16" height="4" rx="2" class="accent"/>
  <rect x="316" y="24" width="16" height="4" rx="2" class="accent"/>
  <rect x="28" y="152" width="16" height="4" rx="2" class="accent-soft"/>
  <rect x="316" y="152" width="16" height="4" rx="2" class="accent-soft"/>
  <path
    class="micro"
    d="M122 134H314C317.314 134 320 136.686 320 140V142C320 145.314 317.314 148 314 148H122C118.686 148 116 145.314 116 142V140C116 136.686 118.686 134 122 134Z"
  />
</svg>
