<svg xmlns="http://www.w3.org/2000/svg" viewBox="0 0 1280 720" role="img" aria-labelledby="title desc">
  <title id="title">Prototype demo stimulus</title>
  <desc id="desc">A polished product screen peels back into wireframes, cardboard mockups, taped notes, and test marks.</desc>
  <rect width="1280" height="720" fill="#eef2f4"/>
  <g transform="translate(130 78)">
    <rect width="1020" height="565" rx="26" fill="#ffffff" stroke="#2b3f46" stroke-width="8"/>
    <rect x="0" y="0" width="1020" height="68" rx="26" fill="#253842"/>
    <circle cx="48" cy="34" r="10" fill="#f05a4f"/>
    <circle cx="82" cy="34" r="10" fill="#ffce55"/>
    <circle cx="116" cy="34" r="10" fill="#5cab7d"/>
    <text x="510" y="44" text-anchor="middle" font-family="Inter, Arial, sans-serif" font-size="24" font-weight="900" fill="#ffffff">LAUNCH DEMO</text>
    <rect x="62" y="120" width="380" height="300" rx="14" fill="#d6eef1"/>
    <rect x="96" y="154" width="312" height="54" rx="10" fill="#1f7a8c"/>
    <rect x="96" y="238" width="312" height="38" rx="8" fill="#ffffff"/>
    <rect x="96" y="304" width="210" height="38" rx="8" fill="#ffffff"/>
    <text x="252" y="474" text-anchor="middle" font-family="Inter, Arial, sans-serif" font-size="26" font-weight="900" fill="#20312d">polished story</text>
    <g transform="translate(520 112)">
      <rect width="394" height="314" rx="12" fill="#f8f1df" stroke="#ad8b54" stroke-width="5"/>
      <path d="M0 0l394 314M394 0L0 314" stroke="#ad8b54" stroke-width="5"/>
      <rect x="42" y="50" width="308" height="46" fill="none" stroke="#4d5961" stroke-width="4" stroke-dasharray="10 10"/>
      <rect x="42" y="132" width="190" height="42" fill="none" stroke="#4d5961" stroke-width="4" stroke-dasharray="10 10"/>
      <rect x="42" y="214" width="250" height="42" fill="none" stroke="#4d5961" stroke-width="4" stroke-dasharray="10 10"/>
      <text x="196" y="372" text-anchor="middle" font-family="Inter, Arial, sans-serif" font-size="26" font-weight="900" fill="#6b4e16">rough middle</text>
    </g>
    <g transform="translate(706 388) rotate(-8)">
      <rect width="260" height="132" rx="8" fill="#fff36f" stroke="#c9b438"/>
      <text x="24" y="48" font-family="Inter, Arial, sans-serif" font-size="24" font-weight="900" fill="#2a2920">TODO:</text>
      <text x="24" y="86" font-family="Inter, Arial, sans-serif" font-size="21" font-weight="800" fill="#2a2920">make it work</text>
    </g>
  </g>
</svg>
