<svg xmlns="http://www.w3.org/2000/svg" viewBox="0 0 1280 720" role="img" aria-labelledby="title desc">
  <title id="title">Recalculating map stimulus</title>
  <desc id="desc">A navigation screen redraws roads around the same destination, showing route systems shaping the journey.</desc>
  <rect width="1280" height="720" fill="#e5eee9"/>
  <g transform="translate(138 70)">
    <rect width="1004" height="580" rx="34" fill="#ffffff" stroke="#2b3f46" stroke-width="8"/>
    <rect x="34" y="34" width="936" height="512" rx="18" fill="#d7e6e1"/>
    <path d="M84 420c138-114 226-120 306-22 68 84 128 52 184-8 56-62 112-88 182-70 62 16 104-4 156-72" fill="none" stroke="#b8c6bb" stroke-width="42" stroke-linecap="round"/>
    <path d="M84 156c114 30 160 92 182 170 22 80 82 110 168 86 92-26 150-100 228-96 82 4 144 64 252 42" fill="none" stroke="#b8c6bb" stroke-width="34" stroke-linecap="round"/>
    <path d="M98 410c150-120 230-112 296-34 62 74 126 52 182-8 66-70 128-84 200-62" fill="none" stroke="#b3272d" stroke-width="14" stroke-linecap="round"/>
    <path d="M100 158c110 34 158 92 182 170 24 76 78 98 154 76 86-24 150-96 228-92" fill="none" stroke="#1f7a8c" stroke-width="14" stroke-linecap="round" stroke-dasharray="22 18"/>
    <g transform="translate(794 150)">
      <path d="M70 0c-39 0-70 31-70 70 0 54 70 124 70 124s70-70 70-124c0-39-31-70-70-70z" fill="#b3272d"/>
      <circle cx="70" cy="70" r="25" fill="#ffffff"/>
    </g>
    <rect x="86" y="72" width="330" height="70" rx="35" fill="#ffffff" stroke="#9eaaa6" stroke-width="4"/>
    <text x="252" y="118" text-anchor="middle" font-family="Inter, Arial, sans-serif" font-size="28" font-weight="900" fill="#20312d">RECALCULATING</text>
    <text x="502" y="518" text-anchor="middle" font-family="Inter, Arial, sans-serif" font-size="28" font-weight="900" fill="#6b4e16">same destination, changing instructions</text>
  </g>
</svg>
