<svg xmlns="http://www.w3.org/2000/svg" viewBox="0 0 1280 720" role="img" aria-labelledby="title desc">
  <title id="title">Threshold line stimulus</title>
  <desc id="desc">A person stands with one foot on either side of a doorway line while documents and ceremonial objects sit nearby.</desc>
  <rect width="1280" height="720" fill="#f2eee7"/>
  <g transform="translate(242 70)">
    <rect x="236" y="0" width="326" height="546" rx="8" fill="#865d43"/>
    <rect x="286" y="58" width="226" height="430" fill="#fbf4e9"/>
    <line x1="0" y1="546" x2="796" y2="546" stroke="#b3272d" stroke-width="16" stroke-linecap="round"/>
    <text x="398" y="592" text-anchor="middle" font-family="Inter, Arial, sans-serif" font-size="31" font-weight="900" fill="#6b2b25">BEFORE / AFTER?</text>
    <g transform="translate(330 182)">
      <circle cx="68" cy="0" r="38" fill="#27424a"/>
      <path d="M34 48h68l24 172H80l-10-92h-8l-10 92H6z" fill="#27424a"/>
      <path d="M62 218l-34 90" stroke="#27424a" stroke-width="26" stroke-linecap="round"/>
      <path d="M88 218l58 88" stroke="#27424a" stroke-width="26" stroke-linecap="round"/>
      <path d="M44 76l-78 44" stroke="#27424a" stroke-width="22" stroke-linecap="round"/>
      <path d="M96 78l86 24" stroke="#27424a" stroke-width="22" stroke-linecap="round"/>
    </g>
    <g transform="translate(78 82)">
      <rect width="158" height="106" rx="12" fill="#ffffff" stroke="#9eaaa6" stroke-width="5"/>
      <rect x="20" y="22" width="50" height="50" rx="6" fill="#c9d6d2"/>
      <line x1="86" y1="34" x2="138" y2="34" stroke="#6e7b80" stroke-width="7"/>
      <line x1="86" y1="62" x2="128" y2="62" stroke="#6e7b80" stroke-width="7"/>
      <text x="79" y="148" text-anchor="middle" font-family="Inter, Arial, sans-serif" font-size="22" font-weight="900" fill="#415055">ID</text>
    </g>
    <g transform="translate(610 92)">
      <rect width="142" height="92" rx="10" fill="#fff36f" stroke="#c9b438" stroke-width="5"/>
      <text x="71" y="58" text-anchor="middle" font-family="Inter, Arial, sans-serif" font-size="23" font-weight="900" fill="#403915">FORM</text>
      <text x="71" y="134" text-anchor="middle" font-family="Inter, Arial, sans-serif" font-size="22" font-weight="900" fill="#415055">permission</text>
    </g>
  </g>
</svg>
