<svg xmlns="http://www.w3.org/2000/svg" width="260" height="460" viewBox="0 0 260 460" fill="none">
  <defs>
    <linearGradient id="woodGrad" x1="0" y1="0" x2="260" y2="460" gradientUnits="userSpaceOnUse">
      <stop offset="0" stop-color="#f0b24b"/>
      <stop offset="0.45" stop-color="#d89532"/>
      <stop offset="0.72" stop-color="#ffd277"/>
      <stop offset="1" stop-color="#d89532"/>
    </linearGradient>
    <filter id="softShadow" x="-8%" y="-8%" width="116%" height="116%">
      <feDropShadow dx="0" dy="3.3" stdDeviation="3.8" flood-color="#2f1708" flood-opacity="0.20"/>
    </filter>
  </defs>
  <g filter="url(#softShadow)">
    <rect x="24" y="24" width="212" height="412" rx="28" fill="url(#woodGrad)" stroke="#2f1708" stroke-width="11"/>
    <rect x="42" y="42" width="176" height="376" rx="20" stroke="#4b250d" stroke-width="6"/>
    <path d="M 126.9 36.0 L 129.8 424.0" stroke="#4b250d" stroke-width="3.0" stroke-linecap="round" opacity="0.7"/>
    <path d="M 118.1 68.7 C 122.1 161.0, 126.1 299.0, 113.6 394.0" stroke="#7a3b12" stroke-width="3.7" fill="none" stroke-linecap="round" opacity="0.28"/><path d="M 207.2 54.7 C 201.6 161.0, 211.2 299.0, 202.3 400.3" stroke="#7a3b12" stroke-width="3.5" fill="none" stroke-linecap="round" opacity="0.35"/><path d="M 176.7 53.3 C 178.9 161.0, 169.6 299.0, 179.4 383.7" stroke="#7a3b12" stroke-width="3.9" fill="none" stroke-linecap="round" opacity="0.31"/><path d="M 193.7 70.1 C 191.2 161.0, 193.6 299.0, 198.1 399.7" stroke="#7a3b12" stroke-width="3.3" fill="none" stroke-linecap="round" opacity="0.34"/><path d="M 149.1 61.9 C 154.1 161.0, 154.7 299.0, 146.5 385.7" stroke="#7a3b12" stroke-width="3.5" fill="none" stroke-linecap="round" opacity="0.31"/><path d="M 127.6 58.7 C 128.6 161.0, 128.3 299.0, 130.4 400.0" stroke="#7a3b12" stroke-width="2.4" fill="none" stroke-linecap="round" opacity="0.30"/><path d="M 95.0 60.8 C 88.9 161.0, 100.0 299.0, 90.4 390.7" stroke="#7a3b12" stroke-width="2.7" fill="none" stroke-linecap="round" opacity="0.29"/>
    <ellipse cx="128.4" cy="155.4" rx="15.7" ry="5.3" fill="none" stroke="#7a3b12" stroke-width="3.2" opacity="0.36" transform="rotate(-4.5 128.4 155.4)"/><ellipse cx="157.1" cy="135.8" rx="19.5" ry="5.5" fill="none" stroke="#7a3b12" stroke-width="3.3" opacity="0.29" transform="rotate(-5.5 157.1 135.8)"/><ellipse cx="145.7" cy="121.2" rx="18.0" ry="4.2" fill="none" stroke="#7a3b12" stroke-width="2.3" opacity="0.40" transform="rotate(6.6 145.7 121.2)"/><ellipse cx="166.7" cy="337.9" rx="17.9" ry="6.3" fill="none" stroke="#7a3b12" stroke-width="3.4" opacity="0.39" transform="rotate(-3.9 166.7 337.9)"/>
  </g>
</svg>