<svg xmlns="http://www.w3.org/2000/svg" width="220" height="400" viewBox="0 0 220 400" fill="none">
  <defs>
    <linearGradient id="woodGrad" x1="0" y1="0" x2="220" y2="400" gradientUnits="userSpaceOnUse">
      <stop offset="0" stop-color="#f0b24b"/>
      <stop offset="0.45" stop-color="#d89532"/>
      <stop offset="0.72" stop-color="#ffd277"/>
      <stop offset="1" stop-color="#d89532"/>
    </linearGradient>
    <filter id="softShadow" x="-8%" y="-8%" width="116%" height="116%">
      <feDropShadow dx="0" dy="3.0" stdDeviation="3.5" flood-color="#2f1708" flood-opacity="0.20"/>
    </filter>
  </defs>
  <g filter="url(#softShadow)">
    <rect x="24" y="24" width="172" height="352" rx="24" fill="url(#woodGrad)" stroke="#2f1708" stroke-width="10"/>
    <rect x="40" y="40" width="140" height="320" rx="16" stroke="#4b250d" stroke-width="5"/>
    <path d="M 110.6 36.0 L 109.3 364.0" stroke="#4b250d" stroke-width="3.0" stroke-linecap="round" opacity="0.7"/>
    <path d="M 97.5 72.2 C 90.5 140.0, 94.7 260.0, 94.0 339.0" stroke="#7a3b12" stroke-width="2.2" fill="none" stroke-linecap="round" opacity="0.42"/><path d="M 53.1 51.8 C 60.8 140.0, 51.2 260.0, 50.7 331.6" stroke="#7a3b12" stroke-width="2.8" fill="none" stroke-linecap="round" opacity="0.28"/><path d="M 108.0 57.6 C 109.7 140.0, 104.1 260.0, 104.4 349.4" stroke="#7a3b12" stroke-width="3.6" fill="none" stroke-linecap="round" opacity="0.28"/><path d="M 90.0 64.4 C 88.0 140.0, 93.6 260.0, 90.5 328.7" stroke="#7a3b12" stroke-width="3.9" fill="none" stroke-linecap="round" opacity="0.42"/><path d="M 81.9 63.1 C 86.3 140.0, 82.3 260.0, 82.1 337.7" stroke="#7a3b12" stroke-width="2.9" fill="none" stroke-linecap="round" opacity="0.31"/><path d="M 120.4 67.8 C 124.3 140.0, 122.5 260.0, 115.7 338.6" stroke="#7a3b12" stroke-width="3.6" fill="none" stroke-linecap="round" opacity="0.33"/>
    <ellipse cx="148.4" cy="248.6" rx="15.5" ry="5.7" fill="none" stroke="#7a3b12" stroke-width="2.4" opacity="0.33" transform="rotate(-3.5 148.4 248.6)"/><ellipse cx="87.6" cy="85.6" rx="12.1" ry="4.7" fill="none" stroke="#7a3b12" stroke-width="2.2" opacity="0.35" transform="rotate(3.0 87.6 85.6)"/>
  </g>
</svg>