<svg
  id="race-life-pip-lost"
  xmlns="http://www.w3.org/2000/svg"
  viewBox="0 0 64 64"
  width="64"
  height="64"
  fill="none"
  role="img"
  aria-label="Spent chance icon"
>
  <defs>
    <style>
      .outer {
        fill: #5a3726;
        opacity: 0.82;
      }
      .body {
        fill: #cdbb9d;
        stroke: #5a3726;
        stroke-width: 2.5;
        vector-effect: non-scaling-stroke;
        opacity: 0.9;
      }
      .inner {
        fill: #4b2f21;
        opacity: 0.95;
      }
      .ring {
        fill: none;
        stroke: #6d1f26;
        stroke-width: 2;
        opacity: 0.42;
        vector-effect: non-scaling-stroke;
      }
      .bar {
        stroke: #ead8b7;
        stroke-width: 2.25;
        stroke-linecap: round;
        opacity: 0.28;
        vector-effect: non-scaling-stroke;
      }
    </style>
  </defs>

  <path
    class="outer"
    d="M32 8
       C40 8 46 11 50 15
       V32
       C50 43 42 50 32 56
       C22 50 14 43 14 32
       V15
       C18 11 24 8 32 8Z"
  />

  <path
    class="body"
    d="M32 12
       C38.5 12 43.5 14.2 47 17.5
       V31
       C47 40.2 40.2 46.5 32 51
       C23.8 46.5 17 40.2 17 31
       V17.5
       C20.5 14.2 25.5 12 32 12Z"
  />

  <circle class="inner" cx="32" cy="30" r="8.5"/>
  <circle class="ring" cx="32" cy="30" r="6.25"/>
  <path class="bar" d="M27 30h10"/>
</svg>
