<svg xmlns="http://www.w3.org/2000/svg" width="1800" height="1250" viewBox="0 0 1800 1250">
  <defs>
    <marker id="arrow" markerWidth="10" markerHeight="10" refX="8" refY="3" orient="auto" markerUnits="strokeWidth">
      <path d="M0,0 L0,6 L8,3 z" fill="#425466"/>
    </marker>
    <style>
      .title { font: 700 42px Inter, Arial, sans-serif; fill: #1f2a2e; }
      .subtitle { font: 500 18px Inter, Arial, sans-serif; fill: #5e6b70; }
      .room-title { font: 800 17px Inter, Arial, sans-serif; fill: #1f2a2e; }
      .room-sub { font: 600 13px Inter, Arial, sans-serif; fill: #526067; }
      .label { font: 700 12px Inter, Arial, sans-serif; fill: #425466; }
      .small { font: 600 11px Inter, Arial, sans-serif; fill: #526067; }
      .hub { fill: #c2e5ff; stroke: #3dadff; }
      .learn { fill: #c6faf6; stroke: #5ad8cc; }
      .play { fill: #ffe0c2; stroke: #ff9e42; }
      .train { fill: #dcccff; stroke: #874fff; }
      .public { fill: #ffecbd; stroke: #ffc943; }
      .event { fill: #d9d9d9; stroke: #8f8f8f; }
      .line { fill: none; stroke: #425466; stroke-width: 3; marker-end: url(#arrow); }
      .bi { fill: none; stroke: #425466; stroke-width: 3; stroke-dasharray: 8 7; marker-end: url(#arrow); }
      .learn-line { stroke: #189c93; }
      .play-line { stroke: #d66b00; }
      .train-line { stroke: #6c40cc; }
    </style>
  </defs>

  <rect width="1800" height="1250" fill="#f7f5ef"/>
  <text x="70" y="70" class="title">Alpaca Campus Door Plan</text>
  <text x="70" y="105" class="subtitle">Updated topology: Lobby landmarks, connected main hubs, Training Center between Learn and Play, side doors inside Learn and Play.</text>

  <!-- Public spine -->
  <rect x="710" y="150" rx="18" ry="18" width="260" height="92" class="public" stroke-width="3"/>
  <text x="840" y="187" text-anchor="middle" class="room-title">Campus Courtyard</text>
  <text x="840" y="213" text-anchor="middle" class="room-sub">outdoor arrival</text>

  <rect x="700" y="330" rx="18" ry="18" width="280" height="105" class="hub" stroke-width="3"/>
  <text x="840" y="371" text-anchor="middle" class="room-title">School Lobby</text>
  <text x="840" y="399" text-anchor="middle" class="room-sub">central reception</text>

  <rect x="385" y="315" rx="18" ry="18" width="250" height="88" class="public" stroke-width="3"/>
  <text x="510" y="350" text-anchor="middle" class="room-title">Guiding Library</text>
  <text x="510" y="374" text-anchor="middle" class="room-sub">direct lobby door</text>

  <rect x="1045" y="315" rx="18" ry="18" width="250" height="88" class="public" stroke-width="3"/>
  <text x="1170" y="350" text-anchor="middle" class="room-title">Alpaca Cinema</text>
  <text x="1170" y="374" text-anchor="middle" class="room-sub">direct lobby door</text>

  <rect x="710" y="525" rx="18" ry="18" width="260" height="88" class="event" stroke-width="3"/>
  <text x="840" y="560" text-anchor="middle" class="room-title">Grand Amphitheater</text>
  <text x="840" y="584" text-anchor="middle" class="room-sub">direct lobby door</text>

  <path d="M840 242 L840 330" class="line"/>
  <path d="M700 372 L635 360" class="line"/>
  <path d="M980 372 L1045 360" class="line"/>
  <path d="M840 435 L840 525" class="line"/>

  <!-- Main hubs -->
  <rect x="230" y="610" rx="18" ry="18" width="280" height="105" class="learn" stroke-width="3"/>
  <text x="370" y="651" text-anchor="middle" class="room-title">Learning Commons</text>
  <text x="370" y="679" text-anchor="middle" class="room-sub">Learn hub</text>

  <rect x="700" y="650" rx="18" ry="18" width="280" height="105" class="train" stroke-width="3"/>
  <text x="840" y="691" text-anchor="middle" class="room-title">Training Center</text>
  <text x="840" y="719" text-anchor="middle" class="room-sub">bridge hub</text>

  <rect x="1170" y="610" rx="18" ry="18" width="280" height="105" class="play" stroke-width="3"/>
  <text x="1310" y="651" text-anchor="middle" class="room-title">Games Hall</text>
  <text x="1310" y="679" text-anchor="middle" class="room-sub">Play hub</text>

  <path d="M760 435 C610 500 475 550 370 610" class="line"/>
  <path d="M840 435 L840 650" class="line"/>
  <path d="M920 435 C1070 500 1205 550 1310 610" class="line"/>
  <path d="M510 662 L700 702" class="bi learn-line"/>
  <path d="M980 702 L1170 662" class="bi train-line"/>
  <path d="M510 640 C760 550 980 550 1170 640" class="bi"/>
  <text x="700" y="610" class="label">main hubs connect to each other</text>

  <!-- Learn internal chain -->
  <rect x="60" y="815" rx="15" ry="15" width="230" height="72" class="learn" stroke-width="2"/>
  <text x="175" y="846" text-anchor="middle" class="room-title">Slideshow Studio</text>
  <text x="175" y="869" text-anchor="middle" class="room-sub">lesson room</text>

  <rect x="60" y="930" rx="15" ry="15" width="230" height="72" class="learn" stroke-width="2"/>
  <text x="175" y="961" text-anchor="middle" class="room-title">Mind Map Lab</text>
  <text x="175" y="984" text-anchor="middle" class="room-sub">concept lab</text>

  <rect x="60" y="1045" rx="15" ry="15" width="230" height="72" class="learn" stroke-width="2"/>
  <text x="175" y="1076" text-anchor="middle" class="room-title">Flashcard Museum</text>
  <text x="175" y="1099" text-anchor="middle" class="room-sub">card exhibits</text>

  <rect x="370" y="1045" rx="15" ry="15" width="230" height="72" class="learn" stroke-width="2"/>
  <text x="485" y="1076" text-anchor="middle" class="room-title">Raw Classroom</text>
  <text x="485" y="1099" text-anchor="middle" class="room-sub">raw content</text>

  <path d="M320 715 L220 815" class="line learn-line"/>
  <path d="M220 887 L220 930" class="bi learn-line"/>
  <path d="M220 1002 L220 1045" class="bi learn-line"/>
  <path d="M290 1081 L370 1081" class="bi learn-line"/>
  <path d="M485 1045 C470 830 470 580 510 403" class="bi learn-line"/>
  <path d="M590 360 L1045 360" class="bi learn-line"/>
  <text x="60" y="790" class="label">Learn side corridor</text>

  <!-- Play internal chain -->
  <rect x="1510" y="790" rx="15" ry="15" width="230" height="72" class="play" stroke-width="2"/>
  <text x="1625" y="821" text-anchor="middle" class="room-title">Alpacapardy</text>
  <text x="1625" y="844" text-anchor="middle" class="room-sub">quiz game</text>

  <rect x="1510" y="905" rx="15" ry="15" width="230" height="72" class="play" stroke-width="2"/>
  <text x="1625" y="936" text-anchor="middle" class="room-title">Alpaquiz Relay</text>
  <text x="1625" y="959" text-anchor="middle" class="room-sub">team buzz</text>

  <rect x="1510" y="1020" rx="15" ry="15" width="230" height="72" class="play" stroke-width="2"/>
  <text x="1625" y="1051" text-anchor="middle" class="room-title">Survivalpaca</text>
  <text x="1625" y="1074" text-anchor="middle" class="room-sub">sudden death</text>

  <rect x="1205" y="1020" rx="15" ry="15" width="230" height="72" class="play" stroke-width="2"/>
  <text x="1320" y="1051" text-anchor="middle" class="room-title">Alpaca Run</text>
  <text x="1320" y="1074" text-anchor="middle" class="room-sub">track route</text>

  <rect x="905" y="1020" rx="15" ry="15" width="230" height="72" class="play" stroke-width="2"/>
  <text x="1020" y="1051" text-anchor="middle" class="room-title">Alpaca Jump</text>
  <text x="1020" y="1074" text-anchor="middle" class="room-sub">gym course</text>

  <path d="M1380 715 L1625 790" class="line play-line"/>
  <path d="M1625 862 L1625 905" class="bi play-line"/>
  <path d="M1625 977 L1625 1020" class="bi play-line"/>
  <path d="M1510 1056 L1435 1056" class="bi play-line"/>
  <path d="M1205 1056 L1135 1056" class="bi play-line"/>
  <text x="1460" y="770" class="label">Play side corridor</text>

  <!-- Training internals -->
  <rect x="610" y="880" rx="15" ry="15" width="210" height="70" class="train" stroke-width="2"/>
  <text x="715" y="910" text-anchor="middle" class="room-title">Writing Studio</text>
  <text x="715" y="932" text-anchor="middle" class="room-sub">Train room</text>

  <rect x="860" y="880" rx="15" ry="15" width="210" height="70" class="train" stroke-width="2"/>
  <text x="965" y="910" text-anchor="middle" class="room-title">Bowl Studio</text>
  <text x="965" y="932" text-anchor="middle" class="room-sub">Train room</text>

  <rect x="610" y="980" rx="15" ry="15" width="210" height="70" class="train" stroke-width="2"/>
  <text x="715" y="1010" text-anchor="middle" class="room-title">Challenge Room</text>
  <text x="715" y="1032" text-anchor="middle" class="room-sub">Train room</text>

  <rect x="860" y="980" rx="15" ry="15" width="210" height="70" class="train" stroke-width="2"/>
  <text x="965" y="1010" text-anchor="middle" class="room-title">Debate Lab</text>
  <text x="965" y="1032" text-anchor="middle" class="room-sub">debate selector</text>

  <rect x="860" y="1110" rx="15" ry="15" width="210" height="62" class="train" stroke-width="2"/>
  <text x="965" y="1145" text-anchor="middle" class="room-title">Debate Rooms 1-3</text>

  <path d="M790 755 L715 880" class="line train-line"/>
  <path d="M850 755 L965 880" class="line train-line"/>
  <path d="M810 755 L715 980" class="line train-line"/>
  <path d="M890 755 L965 980" class="line train-line"/>
  <path d="M965 1050 L965 1110" class="line train-line"/>

  <!-- Legend -->
  <rect x="70" y="160" width="430" height="145" rx="14" fill="#ffffff" stroke="#d0c7b4"/>
  <text x="90" y="195" class="room-title">Legend</text>
  <circle cx="100" cy="225" r="8" fill="#c2e5ff" stroke="#3dadff"/>
  <text x="120" y="230" class="small">Blue: central hub</text>
  <circle cx="100" cy="250" r="8" fill="#ffecbd" stroke="#ffc943"/>
  <text x="120" y="255" class="small">Gold: public lobby landmark</text>
  <circle cx="100" cy="275" r="8" fill="#c6faf6" stroke="#5ad8cc"/>
  <text x="120" y="280" class="small">Teal: Learn</text>
  <circle cx="310" cy="225" r="8" fill="#dcccff" stroke="#874fff"/>
  <text x="330" y="230" class="small">Violet: Train</text>
  <circle cx="310" cy="250" r="8" fill="#ffe0c2" stroke="#ff9e42"/>
  <text x="330" y="255" class="small">Orange: Play</text>
  <line x1="300" y1="278" x2="335" y2="278" class="bi"/>
  <text x="345" y="282" class="small">Dashed: two-way side/hub door</text>
</svg>
